<svg width="576" height="103" viewBox="0 0 576 103" fill="none" xmlns="http://www.w3.org/2000/svg">
<g filter="url(#filter0_d_1_2)">
<path d="M4.03125 59.5H16.6875V16.1406H4.03125V8.64062H34.5L56.4844 47.5469L76.9219 8.64062H107.391V16.1406H94.8281V59.5H107.391V67H73.4062V59.5H84.1875V15.7188L59.0156 63.6719H53.3438L27.3281 17.2188V59.5H38.0156V67H4.03125V59.5ZM98.1094 19.4219H110.766V10.9844H112.641V21.2031H99.9844V56.6875H98.1094V19.4219ZM39.7969 11.0312H41.8594L58.2188 39.7188L57.1406 41.6875L39.7969 11.0312ZM6.84375 19.4219H14.7188V21.2031H6.84375V19.4219ZM61.2188 67L81.9375 27.4375V31.3281L62.4375 68.7812H57.6094L56.625 67H61.2188ZM30.6094 28L32.4844 31.3281V56.6875H30.6094V28ZM110.766 70.2812V62.125H112.641V72.0625H76.2188V70.2812H110.766ZM41.3906 70.2812V62.125H43.2656V72.0625H6.84375V70.2812H41.3906ZM149.391 82.0938L156.562 68.7344L130.406 28.7969H120.375V21.7656H152.391V28.7969H142.453L161.812 58.9844L178.031 28.7969H166.641V21.7656H197.859V28.7969H188.344L155.438 89.125H137.484V82.0938H149.391ZM157.875 92.4062L190.828 32.0781H201.234V24.3906H203.109V33.8594H191.906L159.047 94.1875H140.297V92.4062H157.875ZM149.062 32.0781H155.766V24.3906H157.641V33.8594H152.391L163.219 50.7344L162.188 52.6094L149.062 32.0781ZM168.938 32.0781H173.812L172.875 33.8594H168.938V32.0781ZM123.188 32.0781H129.984L131.156 33.8594H123.188V32.0781ZM211.172 59.5H223.781V16.1406H211.125V8.64062H280.078V25.5156H269.531V16.1406H234.797V35.0781H263.203V40.9375H234.797V59.5H254.203V67H211.172V59.5ZM272.344 28.7969H283.453V10.9844H285.328V30.5781H272.344V28.7969ZM238.172 19.4219H267.656V21.2031H240.094V32.2656H238.172V19.4219ZM213.938 19.4219H221.812V21.2031H213.938V19.4219ZM238.172 44.2188H266.625V37.4219H268.5V46H240.047V56.6875H238.172V44.2188ZM257.578 70.2812V62.125H259.453V72.0625H213.938V70.2812H257.578ZM305.297 0.71875H316.781V10.0938H305.297V0.71875ZM308.109 13.375H320.156V3.34375H322.031V15.1562H308.109V13.375ZM295.453 59.9688H308.109L306.703 29.7344H295.453V21.7656H316.781V59.9688H327.562V67H295.453V59.9688ZM320.062 24.1562H321.938V57.1562H320.062V24.1562ZM298.266 33.0156H304.734V34.7969H298.266V33.0156ZM330.938 70.2812V62.5938H332.812V72.0625H298.266V70.2812H330.938ZM339.656 59.9688H349.969V8.64062H339.656V1.60938H360.047V59.9688H370.359V67H339.656V59.9688ZM363.328 4H365.203V57.1562H363.328V4ZM342.469 11.9219H348V13.7031H342.469V11.9219ZM373.734 70.2812V62.5938H375.609V72.0625H342.469V70.2812H373.734ZM386.297 59.9688H396.609V29.7344H386.297V21.7656H406.688V28.7969C407.625 27.6094 408.75 26.5 410.062 25.4688C411.375 24.4375 412.844 23.5469 414.469 22.7969C416.125 22.0469 417.906 21.4531 419.812 21.0156C421.75 20.5781 423.797 20.3594 425.953 20.3594C430.359 20.3594 434.125 21.2188 437.25 22.9375C440.406 24.6562 442.844 27.3125 444.562 30.9062C445.719 29.375 447.062 27.9688 448.594 26.6875C450.156 25.375 451.859 24.25 453.703 23.3125C455.547 22.375 457.516 21.6562 459.609 21.1562C461.734 20.625 463.953 20.3594 466.266 20.3594C469.484 20.3594 472.391 20.8281 474.984 21.7656C477.578 22.7031 479.781 24.1406 481.594 26.0781C483.438 27.9844 484.844 30.4062 485.812 33.3438C486.812 36.25 487.312 39.6875 487.312 43.6562V59.9688H497.625V67H469.266V59.9688H477.234V47.875C477.234 44.9375 477.109 42.375 476.859 40.1875C476.609 38 476.188 36.3125 475.594 35.125C474.406 32.6562 472.797 30.9062 470.766 29.875C468.766 28.8438 466.406 28.3281 463.688 28.3281C462.125 28.3281 460.531 28.625 458.906 29.2188C457.281 29.7812 455.719 30.5781 454.219 31.6094C452.719 32.6406 451.328 33.8594 450.047 35.2656C448.766 36.6719 447.688 38.1875 446.812 39.8125C446.875 40.4375 446.922 41.0781 446.953 41.7344C446.984 42.3594 447 43 447 43.6562V59.9688H454.969V67H428.953V59.9688H436.922V47.6406C436.922 45.1094 436.797 42.8594 436.547 40.8906C436.328 38.8906 436 37.3281 435.562 36.2031C434.469 33.3594 432.875 31.3438 430.781 30.1562C428.688 28.9375 426.219 28.3281 423.375 28.3281C421.812 28.3281 420.234 28.6094 418.641 29.1719C417.047 29.7344 415.5 30.5156 414 31.5156C412.531 32.5156 411.156 33.7031 409.875 35.0781C408.625 36.4531 407.562 37.9375 406.688 39.5312V59.9688H414.656V67H386.297V59.9688ZM480.75 21.7656C482.875 22.2969 484.688 23.2031 486.188 24.4844C487.688 25.7344 488.906 27.3281 489.844 29.2656C490.781 31.2031 491.469 33.4375 491.906 35.9688C492.344 38.5 492.562 41.2812 492.562 44.3125V57.1562H490.688V43.9844C490.688 41.2344 490.469 38.6875 490.031 36.3438C489.625 33.9688 489 31.8438 488.156 29.9688C487.312 28.0625 486.266 26.4219 485.016 25.0469C483.797 23.6719 482.375 22.5781 480.75 21.7656ZM440.438 21.7656C441.938 21.9531 443.25 22.375 444.375 23.0312C445.531 23.6875 446.422 24.4062 447.047 25.1875L445.688 26.4531C445.5 26.0781 445.203 25.6562 444.797 25.1875C444.422 24.7188 443.984 24.2656 443.484 23.8281C443.016 23.3594 442.5 22.9531 441.938 22.6094C441.406 22.2344 440.906 21.9531 440.438 21.7656ZM450.375 40.75C451.156 39.375 452.062 38.125 453.094 37C454.125 35.875 455.234 34.9219 456.422 34.1406C457.609 33.3281 458.859 32.7031 460.172 32.2656C461.484 31.8281 462.828 31.6094 464.203 31.6094C466.359 31.6094 468.125 32.0156 469.5 32.8281C470.906 33.6406 471.922 34.6719 472.547 35.9219C471.578 35.2031 470.422 34.6094 469.078 34.1406C467.734 33.6406 466.078 33.3906 464.109 33.3906C462.891 33.3906 461.672 33.6094 460.453 34.0469C459.266 34.4531 458.141 35.0156 457.078 35.7344C456.047 36.4531 455.109 37.2812 454.266 38.2188C453.422 39.1562 452.75 40.125 452.25 41.125V57.1562H450.375V40.75ZM410.062 40.75C410.844 39.375 411.75 38.125 412.781 37C413.812 35.875 414.922 34.9219 416.109 34.1406C417.297 33.3281 418.547 32.7031 419.859 32.2656C421.172 31.8281 422.516 31.6094 423.891 31.6094C426.047 31.6094 427.812 32.0156 429.188 32.8281C430.594 33.6406 431.609 34.6719 432.234 35.9219C431.266 35.2031 430.109 34.6094 428.766 34.1406C427.422 33.6406 425.766 33.3906 423.797 33.3906C422.578 33.3906 421.359 33.6094 420.141 34.0469C418.953 34.4531 417.828 35.0156 416.766 35.7344C415.734 36.4531 414.797 37.2812 413.953 38.2188C413.109 39.1562 412.438 40.125 411.938 41.125V57.1562H410.062V40.75ZM389.109 33.0156H394.641V34.7969H389.109V33.0156ZM501 70.2812V62.5938H502.875V72.0625H472.078V70.2812H501ZM458.344 70.2812V62.5938H460.219V72.0625H431.766V70.2812H458.344ZM418.031 70.2812V62.5938H419.906V72.0625H389.109V70.2812H418.031ZM512.062 54.1094H521.719C522.562 55.3906 523.766 56.5156 525.328 57.4844C526.891 58.4531 528.672 59.25 530.672 59.875C532.703 60.5 534.922 60.9688 537.328 61.2812C539.734 61.5938 542.203 61.75 544.734 61.75C546.828 61.75 548.609 61.5938 550.078 61.2812C551.547 60.9688 552.734 60.5312 553.641 59.9688C554.547 59.4062 555.203 58.75 555.609 58C556.016 57.25 556.219 56.4219 556.219 55.5156C556.219 53.6094 554.688 51.9844 551.625 50.6406C548.594 49.2656 543.781 48.2188 537.188 47.5C532.812 47.0312 529.156 46.3906 526.219 45.5781C523.281 44.7344 520.906 43.7188 519.094 42.5312C517.312 41.3438 516.031 39.9844 515.25 38.4531C514.5 36.9219 514.125 35.2344 514.125 33.3906C514.125 31.7969 514.625 30.2188 515.625 28.6562C516.625 27.0938 518.141 25.7031 520.172 24.4844C522.234 23.2344 524.797 22.2344 527.859 21.4844C530.953 20.7344 534.578 20.3594 538.734 20.3594C540.078 20.3594 541.453 20.4531 542.859 20.6406C544.266 20.8281 545.641 21.1094 546.984 21.4844C548.328 21.8281 549.609 22.25 550.828 22.75C552.047 23.25 553.141 23.8125 554.109 24.4375V21.8125H564.188V34.4688H554.109C553.766 33.5 553.047 32.5781 551.953 31.7031C550.859 30.8281 549.562 30.0625 548.062 29.4062C546.562 28.75 544.969 28.2344 543.281 27.8594C541.594 27.4531 540 27.25 538.5 27.25C536.531 27.25 534.672 27.3906 532.922 27.6719C531.172 27.9531 529.656 28.3594 528.375 28.8906C527.094 29.3906 526.078 30 525.328 30.7188C524.578 31.4375 524.203 32.2344 524.203 33.1094C524.203 33.9219 524.484 34.6562 525.047 35.3125C525.641 35.9688 526.609 36.5781 527.953 37.1406C529.328 37.7031 531.141 38.2344 533.391 38.7344C535.672 39.2031 538.5 39.6406 541.875 40.0469C546.375 40.6094 550.172 41.3281 553.266 42.2031C556.359 43.0781 558.875 44.1562 560.812 45.4375C562.75 46.6875 564.141 48.1562 564.984 49.8438C565.859 51.5312 566.297 53.4688 566.297 55.6562C566.297 57.25 565.812 58.8125 564.844 60.3438C563.875 61.8438 562.453 63.2031 560.578 64.4219C558.734 65.6094 556.453 66.5625 553.734 67.2812C551.047 68.0312 547.953 68.4062 544.453 68.4062C542.203 68.4062 540.094 68.3125 538.125 68.125C536.156 67.9688 534.266 67.6875 532.453 67.2812C530.641 66.875 528.891 66.3594 527.203 65.7344C525.516 65.1094 523.828 64.3438 522.141 63.4375V67H512.062V54.1094ZM556.406 37.75H567.562V23.7812H569.438V39.5312H556.406V37.75ZM527.625 33.1094C527.719 32.7031 528.094 32.3281 528.75 31.9844C529.406 31.6406 530.234 31.3438 531.234 31.0938C532.266 30.8125 533.391 30.5938 534.609 30.4375C535.859 30.2812 537.109 30.2031 538.359 30.2031C539.422 30.2031 540.516 30.2812 541.641 30.4375C542.797 30.5938 543.875 30.8125 544.875 31.0938C545.906 31.375 546.828 31.7344 547.641 32.1719C548.484 32.5781 549.141 33.0469 549.609 33.5781C548.891 33.2656 548.031 33.0156 547.031 32.8281C546.031 32.6094 545 32.4375 543.938 32.3125C542.906 32.1875 541.891 32.0938 540.891 32.0312C539.891 31.9688 539.047 31.9375 538.359 31.9375C535.828 31.9375 533.625 32.0625 531.75 32.3125C529.906 32.5625 528.531 32.8281 527.625 33.1094ZM514.781 42.3906C515.656 43.5156 516.703 44.5156 517.922 45.3906C519.141 46.2656 520.609 47.0469 522.328 47.7344C524.047 48.4219 526.047 49.0156 528.328 49.5156C530.609 49.9844 533.234 50.3906 536.203 50.7344C538.922 51.0469 541.281 51.3906 543.281 51.7656C545.281 52.1094 546.953 52.5 548.297 52.9375C549.641 53.375 550.688 53.875 551.438 54.4375C552.188 54.9688 552.672 55.5781 552.891 56.2656C552.234 55.8281 551.484 55.4531 550.641 55.1406C549.797 54.7969 548.719 54.4844 547.406 54.2031C546.094 53.9219 544.469 53.6406 542.531 53.3594C540.625 53.0781 538.25 52.7656 535.406 52.4219C529.531 51.7344 524.891 50.625 521.484 49.0938C518.078 47.5312 515.844 45.2969 514.781 42.3906ZM525.516 70.2812V68.3125C526.391 68.7188 527.5 69.1094 528.844 69.4844C530.188 69.8906 531.688 70.25 533.344 70.5625C535.031 70.9062 536.812 71.1719 538.688 71.3594C540.562 71.5781 542.469 71.6875 544.406 71.6875C548.281 71.6875 551.781 71.25 554.906 70.375C558.031 69.5312 560.688 68.3906 562.875 66.9531C565.062 65.4844 566.734 63.7969 567.891 61.8906C569.078 59.9531 569.672 57.9219 569.672 55.7969C569.672 54.9531 569.625 54.1719 569.531 53.4531C569.438 52.7344 569.266 52.0469 569.016 51.3906C568.797 50.7344 568.484 50.0781 568.078 49.4219C567.703 48.7656 567.219 48.0781 566.625 47.3594C569.906 49.2969 571.547 52.1094 571.547 55.7969C571.547 58.2969 570.906 60.625 569.625 62.7812C568.344 64.9375 566.516 66.7969 564.141 68.3594C561.797 69.9531 558.953 71.2031 555.609 72.1094C552.266 73.0156 548.516 73.4688 544.359 73.4688C542.828 73.4688 541.281 73.3906 539.719 73.2344C538.156 73.1094 536.641 72.9219 535.172 72.6719C533.703 72.4219 532.312 72.125 531 71.7812C529.688 71.4375 528.516 71.0469 527.484 70.6094V72.1562H514.359V70.2812H525.516Z" fill="white"/>
</g>
<defs>
<filter id="filter0_d_1_2" x="0.03125" y="0.71875" width="575.516" height="101.469" filterUnits="userSpaceOnUse" color-interpolation-filters="sRGB">
<feFlood flood-opacity="0" result="BackgroundImageFix"/>
<feColorMatrix in="SourceAlpha" type="matrix" values="0 0 0 0 0 0 0 0 0 0 0 0 0 0 0 0 0 0 127 0" result="hardAlpha"/>
<feOffset dy="4"/>
<feGaussianBlur stdDeviation="2"/>
<feComposite in2="hardAlpha" operator="out"/>
<feColorMatrix type="matrix" values="0 0 0 0 0 0 0 0 0 0 0 0 0 0 0 0 0 0 0.25 0"/>
<feBlend mode="normal" in2="BackgroundImageFix" result="effect1_dropShadow_1_2"/>
<feBlend mode="normal" in="SourceGraphic" in2="effect1_dropShadow_1_2" result="shape"/>
</filter>
</defs>
</svg>
